<?xml version="1.0" encoding="UTF-8"?>
<!-- Generator: Adobe Illustrator 16.2.0, SVG Export Plug-In . SVG Version: 6.00 Build 0)  -->

<svg version="1.1" id="Layer_1" sodipodi:docname="myexample.svg" inkscape:version="0.48.4 r9939" xmlns:osb="http://www.openswatchbook.org/uri/2009/osb" xmlns:dc="http://purl.org/dc/elements/1.1/" xmlns:cc="http://creativecommons.org/ns#" xmlns:rdf="http://www.w3.org/1999/02/22-rdf-syntax-ns#" xmlns:svg="http://www.w3.org/2000/svg" xmlns:sodipodi="http://sodipodi.sourceforge.net/DTD/sodipodi-0.dtd" xmlns:inkscape="http://www.inkscape.org/namespaces/inkscape" xmlns="http://www.w3.org/2000/svg" xmlns:xlink="http://www.w3.org/1999/xlink" x="0px" y="0px" width="6000px" height="300px" viewBox="0 0 400 300" enable-background="new 0 0 400 300" xml:space="preserve">
<sodipodi:namedview inkscape:pageshadow="2" inkscape:window-maximized="1" inkscape:current-layer="layer4" inkscape:window-y="-8" inkscape:window-x="-8" inkscape:window-height="838" inkscape:document-units="mm" inkscape:snap-nodes="false" inkscape:object-paths="false" inkscape:snap-global="true" inkscape:pageopacity="0.0" inkscape:window-width="1600" showgrid="false" id="namedview2991" inkscape:cy="544.41083" inkscape:cx="264.29004" inkscape:zoom="2" borderopacity="1.0" bordercolor="#666666" pagecolor="#ffffff">
	</sodipodi:namedview>
<g>
	<g id="Base">
		<rect id="Map_borders" x="86.5" y="81.095" fill-opacity="0" stroke="#000000" stroke-miterlimit="10" width="290.501" height="203.5"/>
		<g id="Stair_1_">
			<rect x="359.222" y="256.616" fill="#FFFFFF" stroke="#000000" stroke-miterlimit="10" width="17.778" height="27.979"/>
			<line fill="none" stroke="#000000" stroke-miterlimit="10" x1="359.222" y1="262.703" x2="377.001" y2="262.703"/>
			<line fill="none" stroke="#000000" stroke-miterlimit="10" x1="359.222" y1="268.138" x2="377.001" y2="268.138"/>
			<line fill="none" stroke="#000000" stroke-miterlimit="10" x1="359.222" y1="273.805" x2="377.001" y2="273.805"/>
			<line fill="none" stroke="#000000" stroke-miterlimit="10" x1="359.222" y1="279.138" x2="377.001" y2="279.138"/>
		</g>
	</g>
	<g id="Rooms">
		<a id="Entrance" xlink:href="#">
			<g>
				<rect x="314.906" y="81.094" fill="#FFFFFF" stroke="#000000" stroke-miterlimit="10" width="62.1" height="22.25"/>
			</g>
		</a>
		<a id="A5" xlink:href="#">
			<g>
				
					<linearGradient id="rect3006_1_" gradientUnits="userSpaceOnUse" x1="512.9197" y1="31.3132" x2="538.2584" y2="31.3132" gradientTransform="matrix(1 0 0 -1 -289.4995 211.0981)">
					<stop offset="0" style="stop-color:#000000"/>
					<stop offset="1" style="stop-color:#000000"/>
				</linearGradient>
				
					<rect id="rect3006" x="223.421" y="161.358" fill="green" stroke="url(#rect3006_1_)" stroke-width="0.8681" width="25.337" height="36.854"/>
				
					<path id="path3831" inkscape:connector-curvature="0" sodipodi:nodetypes="ccc" fill="none" stroke="#000000" stroke-width="0.8681" d="      M248.567,187.028h-8.134c1.094,4.258,3.615,6.562,8.134,6.143"/>
			</g>
		</a>
		<a id="A7" xlink:href="#">
			<g>
				
					<linearGradient id="rect3002_1_" gradientUnits="userSpaceOnUse" x1="579.7166" y1="40.5271" x2="634.9954" y2="40.5271" gradientTransform="matrix(1 0 0 -1 -289.4995 211.0981)">
					<stop offset="0" style="stop-color:#000000"/>
					<stop offset="1" style="stop-color:#000000"/>
				</linearGradient>
				
					<rect id="rect3002" x="290.217" y="154.448" fill="#999999" stroke="url(#rect3002_1_)" stroke-width="0.8681" width="55.278" height="32.247"/>
				
					<path id="path3881" inkscape:connector-curvature="0" sodipodi:nodetypes="ccc" fill="none" stroke="#000000" stroke-width="0.8681" d="      M289.933,168.528h8.134c-1.095,4.258-3.611,6.562-8.134,6.143"/>
			</g>
		</a>
		<a id="A4" xlink:href="#">
			<g>
				
					<linearGradient id="rect3010_1_" gradientUnits="userSpaceOnUse" x1="522.1316" y1="92.3518" x2="577.4139" y2="92.3518" gradientTransform="matrix(1 0 0 -1 -289.4995 211.0981)">
					<stop offset="0" style="stop-color:#000000"/>
					<stop offset="1" style="stop-color:#000000"/>
				</linearGradient>
				
					<rect id="rect3010" x="232.634" y="99.168" fill="#999999" stroke="url(#rect3010_1_)" stroke-width="0.8681" width="55.28" height="39.156"/>
				
					<path id="path3883" inkscape:connector-curvature="0" sodipodi:nodetypes="ccc" fill="none" stroke="#000000" stroke-width="0.8681" d="      M232.433,115.528h8.134c-1.094,4.258-3.611,6.562-8.134,6.143"/>
			</g>
		</a>
		<a id="A6" xlink:href="#">
			<g>
				
					<linearGradient id="rect3008_1_" gradientUnits="userSpaceOnUse" x1="515.2244" y1="-30.8752" x2="542.8646" y2="-30.8752" gradientTransform="matrix(1 0 0 -1 -289.4995 211.0981)">
					<stop offset="0" style="stop-color:#000000"/>
					<stop offset="1" style="stop-color:#000000"/>
				</linearGradient>
				
					<rect id="rect3008" x="225.724" y="221.243" fill="#999999" stroke="url(#rect3008_1_)" stroke-width="0.8681" width="27.64" height="41.46"/>
				
					<path id="path3885" inkscape:connector-curvature="0" sodipodi:nodetypes="ccc" fill="none" stroke="#000000" stroke-width="0.8681" d="      M241.594,221.056v8.133c-4.258-1.094-6.562-3.617-6.143-8.133"/>
			</g>
		</a>
		<a id="A3" xlink:href="#">
			<g>
				
					<linearGradient id="rect3000_1_" gradientUnits="userSpaceOnUse" x1="411.5745" y1="-33.1785" x2="459.9429" y2="-33.1785" gradientTransform="matrix(1 0 0 -1 -289.4995 211.0981)">
					<stop offset="0" style="stop-color:#000000"/>
					<stop offset="1" style="stop-color:#000000"/>
				</linearGradient>
				
					<rect id="rect3000" x="122.075" y="228.154" fill="#999999" stroke="url(#rect3000_1_)" stroke-width="0.8681" width="48.364" height="32.246"/>
				
					<path id="path3887" inkscape:connector-curvature="0" sodipodi:nodetypes="ccc" fill="none" stroke="#000000" stroke-width="0.8681" d="      M170.067,241.528h-8.134c1.094,4.258,3.615,6.562,8.134,6.143"/>
			</g>
		</a>
		<a id="A2" xlink:href="#">
			<g>
				
					<linearGradient id="rect2998_1_" gradientUnits="userSpaceOnUse" x1="409.2708" y1="31.3137" x2="462.2486" y2="31.3137" gradientTransform="matrix(1 0 0 -1 -289.4995 211.0981)">
					<stop offset="0" style="stop-color:#000000"/>
					<stop offset="1" style="stop-color:#000000"/>
				</linearGradient>
				
					<rect id="rect2998" x="119.772" y="159.055" fill="#999999" stroke="url(#rect2998_1_)" stroke-width="0.8681" width="52.979" height="41.459"/>
				
					<path id="path3889" inkscape:connector-curvature="0" sodipodi:nodetypes="ccc" fill="none" stroke="#000000" stroke-width="0.8681" d="      M172.567,166.528h-8.134c1.094,4.258,3.615,6.562,8.134,6.143"/>
			</g>
		</a>
		<a id="A1" xlink:href="#">
			<g>
				
					<linearGradient id="rect2996_1_" gradientUnits="userSpaceOnUse" x1="404.6663" y1="88.8977" x2="464.5515" y2="88.8977" gradientTransform="matrix(1 0 0 -1 -289.4995 211.0981)">
					<stop offset="0" style="stop-color:#000000"/>
					<stop offset="1" style="stop-color:#000000"/>
				</linearGradient>
				
					<rect id="rect2996" x="115.166" y="99.168" fill="#999999" stroke="url(#rect2996_1_)" stroke-width="0.8681" width="59.888" height="46.064"/>
				
					<path id="path3902" inkscape:connector-curvature="0" sodipodi:nodetypes="ccc" fill="none" stroke="#000000" stroke-width="0.8681" d="      M140.594,144.689v-8.133c-4.258,1.094-6.562,3.611-6.143,8.133"/>
			</g>
		</a>
		<a id="A8" xlink:href="#">
			<g>
				
					<linearGradient id="rect3004_1_" gradientUnits="userSpaceOnUse" x1="582.0203" y1="-17.0588" x2="637.3021" y2="-17.0588" gradientTransform="matrix(1 0 0 -1 -289.4995 211.0981)">
					<stop offset="0" style="stop-color:#000000"/>
					<stop offset="1" style="stop-color:#000000"/>
				</linearGradient>
				
					<rect id="rect3004" x="292.52" y="214.334" fill="#999999" stroke="url(#rect3004_1_)" stroke-width="0.8681" width="55.277" height="27.646"/>
				
					<path id="path3904" inkscape:connector-curvature="0" sodipodi:nodetypes="ccc" fill="none" stroke="#000000" stroke-width="0.8681" d="      M314.906,241.689v-8.133c4.261,1.094,6.563,3.611,6.146,8.133"/>
			</g>
		</a>
	</g>
	<g id="Paths">
		<line fill="none" stroke="#000000" x1="317.501" y1="241.974" x2="318" y2="251.138"/>
		<line fill="none" stroke="#000000" x1="318" y1="251.138" x2="273.945" y2="251.138"/>
		<line fill="none" stroke="#000000" x1="273.945" y1="251.138" x2="273.945" y2="210.138"/>
		<line fill="none" stroke="#000000" x1="273.945" y1="210.138" x2="239.544" y2="210.138"/>
		<line fill="none" stroke="#000000" x1="238.5" y1="221.094" x2="239.544" y2="210.138"/>
		<line fill="none" stroke="#000000" x1="273.945" y1="210.138" x2="273.945" y2="189.594"/>
		<line fill="none" stroke="#000000" x1="273.945" y1="189.594" x2="248.758" y2="189.594"/>
		<line fill="none" stroke="#000000" x1="273.945" y1="189.594" x2="273.945" y2="171.622"/>
		<line fill="none" stroke="#000000" x1="273.945" y1="171.622" x2="290.217" y2="171.594"/>
		<line fill="none" stroke="#000000" x1="273.945" y1="171.622" x2="273.945" y2="150.638"/>
		<line fill="none" stroke="#000000" x1="273.945" y1="150.638" x2="220.445" y2="150.638"/>
		<line fill="none" stroke="#000000" x1="220.445" y1="150.638" x2="220.445" y2="117.594"/>
		<line fill="none" stroke="#000000" x1="220.445" y1="117.594" x2="232.634" y2="117.594"/>
		<line fill="none" stroke="#000000" x1="220.445" y1="150.638" x2="187.445" y2="150.638"/>
		<line fill="none" stroke="#000000" x1="187.445" y1="150.638" x2="187.445" y2="169.094"/>
		<line fill="none" stroke="#000000" x1="187.445" y1="169.094" x2="172.748" y2="169.094"/>
		<line fill="none" stroke="#000000" x1="187.445" y1="150.638" x2="137.5" y2="150.638"/>
		<line fill="none" stroke="#000000" x1="137.5" y1="150.638" x2="138" y2="145.235"/>
		<line fill="none" stroke="#000000" x1="187.445" y1="169.094" x2="187.445" y2="243.594"/>
		<line fill="none" stroke="#000000" x1="187.445" y1="243.594" x2="170.445" y2="243.594"/>
		<line fill="none" stroke="#000000" x1="239.544" y1="210.138" x2="187.445" y2="210.138"/>
		<line fill="none" stroke="#000000" x1="318" y1="251.138" x2="317.501" y2="269.638"/>
		<line fill="none" stroke="#000000" x1="317.501" y1="269.638" x2="187.445" y2="269.638"/>
		<line fill="none" stroke="#000000" x1="187.445" y1="269.638" x2="187.445" y2="243.594"/>
		<line fill="none" stroke="#000000" x1="137.5" y1="150.638" x2="104.945" y2="150.638"/>
		<line fill="none" stroke="#000000" x1="104.945" y1="150.638" x2="104.945" y2="269.638"/>
		<line fill="none" stroke="#000000" x1="104.945" y1="269.638" x2="187.445" y2="269.638"/>
		<line fill="none" stroke="#000000" x1="187.445" y1="210.138" x2="104.945" y2="210.138"/>
		<line fill="none" stroke="#000000" stroke-miterlimit="10" x1="318" y1="251.138" x2="369.779" y2="251.138"/>
		<line fill="none" stroke="#000000" stroke-miterlimit="10" x1="347.799" y1="150.638" x2="347.799" y2="103.344"/>
		<line fill="none" stroke="#000000" stroke-miterlimit="10" x1="273.945" y1="150.638" x2="347.799" y2="150.638"/>
		<line fill="none" stroke="#000000" x1="369.779" y1="150.638" x2="369.779" y2="251.138"/>
		<line fill="none" stroke="#000000" x1="347.799" y1="150.638" x2="369.779" y2="150.638"/>
		<line fill="none" stroke="#000000" stroke-miterlimit="10" x1="369.779" y1="251.138" x2="368.113" y2="256.616"/>
	</g>
	<g id="Doors">
		<line id="A1_1_" fill="none" stroke="#000000" x1="138" y1="145.235" x2="140.594" y2="140.623"/>
		<line id="A4_1_" fill="none" stroke="#000000" x1="232.634" y1="117.594" x2="236.5" y2="121.118"/>
		<line id="A2_1_" fill="none" stroke="#000000" x1="172.748" y1="169.094" x2="167.599" y2="171.623"/>
		<line id="A5_1_" fill="none" stroke="#000000" x1="248.758" y1="189.594" x2="244.5" y2="192.618"/>
		<line id="A7_1_" fill="none" stroke="#000000" x1="290.217" y1="171.594" x2="295.574" y2="173.094"/>
		<line id="A8_1_" fill="none" stroke="#000000" x1="317.501" y1="241.974" x2="320.159" y2="237.623"/>
		<line id="A6_1_" fill="none" stroke="#000000" x1="238.5" y1="221.094" x2="241.594" y2="225.123"/>
		<line id="A3_1_" fill="none" stroke="#000000" x1="170.445" y1="243.594" x2="164.433" y2="246.556"/>
		<line id="Entrance_1_" fill="none" stroke="#000000" x1="347.799" y1="103.344" x2="352.779" y2="99.168"/>
	</g>
	<g id="Portals">
		
			<line id="Stair.1.floor2" fill="none" stroke="#000000" stroke-miterlimit="10" x1="368.113" y1="256.616" x2="371.446" y2="262.703"/>
	</g>
	<g id="RoomsName">
		<text transform="matrix(1 0 0 1 329.446 93.4709)" font-family="'MyriadPro-Regular'" font-size="10">Entrance</text>
		<text transform="matrix(1 0 0 1 229.5002 183.094)" font-family="'MyriadPro-Regular'" font-size="10">A5</text>
		<text transform="matrix(1 0 0 1 313.0002 173.094)" font-family="'MyriadPro-Regular'" font-size="10">A7</text>
		<text transform="matrix(1 0 0 1 254.0002 122.094)" font-family="'MyriadPro-Regular'" font-size="10">A4</text>
		<text transform="matrix(1 0 0 1 234.0002 244.094)" font-family="'MyriadPro-Regular'" font-size="10">A6</text>
		<text transform="matrix(1 0 0 1 140.5002 247.594)" font-family="'MyriadPro-Regular'" font-size="10">A3</text>
		<text transform="matrix(1 0 0 1 138.5002 183.094)" font-family="'MyriadPro-Regular'" font-size="10">A2</text>
		<text transform="matrix(1 0 0 1 139.0002 125.594)" font-family="'MyriadPro-Regular'" font-size="10">A1</text>
		<text transform="matrix(1 0 0 1 313.0002 230.594)" font-family="'MyriadPro-Regular'" font-size="10">A8</text>
	</g>
</g>
</svg>